<mxfile host="app.diagrams.net" modified="2023-07-09T05:54:38.590Z" agent="Mozilla/5.0 (Windows NT 10.0; Win64; x64) AppleWebKit/537.36 (KHTML, like Gecko) Chrome/114.0.0.0 Safari/537.36 Edg/114.0.1823.67" etag="egUjAnN8dUoO1OMEimX3" version="21.5.2" type="github">
  <diagram name="第 1 页" id="0d6a2WRIjfuJbXA5-QqL">
    <mxGraphModel dx="1193" dy="1939" grid="1" gridSize="10" guides="1" tooltips="1" connect="1" arrows="1" fold="1" page="1" pageScale="1" pageWidth="827" pageHeight="1169" math="0" shadow="0">
      <root>
        <mxCell id="0" />
        <mxCell id="1" parent="0" />
        <mxCell id="MLiWWHoeJHPschGG-X9B-36" value="" style="edgeStyle=orthogonalEdgeStyle;rounded=0;orthogonalLoop=1;jettySize=auto;html=1;" edge="1" parent="1" source="jQA3WTR6vjnxbKBaBSNO-1" target="MLiWWHoeJHPschGG-X9B-24">
          <mxGeometry relative="1" as="geometry" />
        </mxCell>
        <mxCell id="MLiWWHoeJHPschGG-X9B-37" value="" style="edgeStyle=orthogonalEdgeStyle;rounded=0;orthogonalLoop=1;jettySize=auto;html=1;" edge="1" parent="1" source="jQA3WTR6vjnxbKBaBSNO-1" target="jQA3WTR6vjnxbKBaBSNO-17">
          <mxGeometry relative="1" as="geometry" />
        </mxCell>
        <mxCell id="MLiWWHoeJHPschGG-X9B-38" value="" style="edgeStyle=orthogonalEdgeStyle;rounded=0;orthogonalLoop=1;jettySize=auto;html=1;" edge="1" parent="1" source="jQA3WTR6vjnxbKBaBSNO-1" target="jQA3WTR6vjnxbKBaBSNO-9">
          <mxGeometry relative="1" as="geometry" />
        </mxCell>
        <mxCell id="MLiWWHoeJHPschGG-X9B-39" value="" style="edgeStyle=orthogonalEdgeStyle;rounded=0;orthogonalLoop=1;jettySize=auto;html=1;" edge="1" parent="1" source="jQA3WTR6vjnxbKBaBSNO-1" target="jQA3WTR6vjnxbKBaBSNO-10">
          <mxGeometry relative="1" as="geometry" />
        </mxCell>
        <mxCell id="jQA3WTR6vjnxbKBaBSNO-1" value="小车主控" style="whiteSpace=wrap;html=1;aspect=fixed;" parent="1" vertex="1">
          <mxGeometry x="260" y="160" width="200" height="200" as="geometry" />
        </mxCell>
        <mxCell id="MLiWWHoeJHPschGG-X9B-20" value="" style="edgeStyle=orthogonalEdgeStyle;rounded=0;orthogonalLoop=1;jettySize=auto;html=1;" edge="1" parent="1" source="jQA3WTR6vjnxbKBaBSNO-9" target="MLiWWHoeJHPschGG-X9B-19">
          <mxGeometry relative="1" as="geometry" />
        </mxCell>
        <mxCell id="jQA3WTR6vjnxbKBaBSNO-9" value="K210线程&lt;br&gt;优先级（10）" style="rounded=0;whiteSpace=wrap;html=1;" parent="1" vertex="1">
          <mxGeometry x="320" y="400" width="80" height="50" as="geometry" />
        </mxCell>
        <mxCell id="jQA3WTR6vjnxbKBaBSNO-10" value="WIFI接收线程" style="rounded=0;whiteSpace=wrap;html=1;" parent="1" vertex="1">
          <mxGeometry x="110" y="235" width="80" height="50" as="geometry" />
        </mxCell>
        <mxCell id="MLiWWHoeJHPschGG-X9B-23" value="" style="edgeStyle=orthogonalEdgeStyle;rounded=0;orthogonalLoop=1;jettySize=auto;html=1;" edge="1" parent="1" source="jQA3WTR6vjnxbKBaBSNO-11" target="MLiWWHoeJHPschGG-X9B-22">
          <mxGeometry relative="1" as="geometry" />
        </mxCell>
        <mxCell id="jQA3WTR6vjnxbKBaBSNO-11" value="SKP激光测距" style="rounded=0;whiteSpace=wrap;html=1;" parent="1" vertex="1">
          <mxGeometry x="320" y="-90" width="80" height="50" as="geometry" />
        </mxCell>
        <mxCell id="MLiWWHoeJHPschGG-X9B-40" value="" style="edgeStyle=orthogonalEdgeStyle;rounded=0;orthogonalLoop=1;jettySize=auto;html=1;" edge="1" parent="1" source="jQA3WTR6vjnxbKBaBSNO-17" target="jQA3WTR6vjnxbKBaBSNO-20">
          <mxGeometry relative="1" as="geometry" />
        </mxCell>
        <mxCell id="jQA3WTR6vjnxbKBaBSNO-17" value="电机驱动线程&lt;br&gt;优先级（8）" style="rounded=0;whiteSpace=wrap;html=1;direction=south;" parent="1" vertex="1">
          <mxGeometry x="535" y="190" width="90" height="140" as="geometry" />
        </mxCell>
        <mxCell id="MLiWWHoeJHPschGG-X9B-32" value="" style="edgeStyle=orthogonalEdgeStyle;rounded=0;orthogonalLoop=1;jettySize=auto;html=1;" edge="1" parent="1" source="jQA3WTR6vjnxbKBaBSNO-19" target="MLiWWHoeJHPschGG-X9B-31">
          <mxGeometry relative="1" as="geometry" />
        </mxCell>
        <mxCell id="jQA3WTR6vjnxbKBaBSNO-19" value="编码器" style="rounded=0;whiteSpace=wrap;html=1;direction=south;" parent="1" vertex="1">
          <mxGeometry x="760" y="70" width="50" height="80" as="geometry" />
        </mxCell>
        <mxCell id="MLiWWHoeJHPschGG-X9B-42" value="" style="edgeStyle=orthogonalEdgeStyle;rounded=0;orthogonalLoop=1;jettySize=auto;html=1;" edge="1" parent="1" source="jQA3WTR6vjnxbKBaBSNO-20" target="MLiWWHoeJHPschGG-X9B-41">
          <mxGeometry relative="1" as="geometry" />
        </mxCell>
        <mxCell id="jQA3WTR6vjnxbKBaBSNO-20" value="PID闭环" style="rounded=0;whiteSpace=wrap;html=1;direction=south;" parent="1" vertex="1">
          <mxGeometry x="665" y="220" width="50" height="80" as="geometry" />
        </mxCell>
        <mxCell id="MLiWWHoeJHPschGG-X9B-10" style="edgeStyle=orthogonalEdgeStyle;rounded=0;orthogonalLoop=1;jettySize=auto;html=1;" edge="1" parent="1" source="MLiWWHoeJHPschGG-X9B-7" target="MLiWWHoeJHPschGG-X9B-9">
          <mxGeometry relative="1" as="geometry" />
        </mxCell>
        <mxCell id="MLiWWHoeJHPschGG-X9B-7" value="K210" style="rounded=0;whiteSpace=wrap;html=1;direction=west;" vertex="1" parent="1">
          <mxGeometry x="320" y="615" width="80" height="40" as="geometry" />
        </mxCell>
        <mxCell id="MLiWWHoeJHPschGG-X9B-14" style="edgeStyle=orthogonalEdgeStyle;rounded=0;orthogonalLoop=1;jettySize=auto;html=1;exitX=0.5;exitY=0;exitDx=0;exitDy=0;entryX=0.5;entryY=1;entryDx=0;entryDy=0;" edge="1" parent="1" source="MLiWWHoeJHPschGG-X9B-9">
          <mxGeometry relative="1" as="geometry">
            <mxPoint x="360" y="540" as="targetPoint" />
          </mxGeometry>
        </mxCell>
        <mxCell id="MLiWWHoeJHPschGG-X9B-15" value="" style="edgeStyle=orthogonalEdgeStyle;rounded=0;orthogonalLoop=1;jettySize=auto;html=1;" edge="1" parent="1" source="MLiWWHoeJHPschGG-X9B-9" target="MLiWWHoeJHPschGG-X9B-13">
          <mxGeometry relative="1" as="geometry" />
        </mxCell>
        <mxCell id="MLiWWHoeJHPschGG-X9B-9" value="帧头@帧尾#" style="rounded=0;whiteSpace=wrap;html=1;" vertex="1" parent="1">
          <mxGeometry x="320" y="550" width="80" height="40" as="geometry" />
        </mxCell>
        <mxCell id="MLiWWHoeJHPschGG-X9B-16" value="" style="edgeStyle=orthogonalEdgeStyle;rounded=0;orthogonalLoop=1;jettySize=auto;html=1;" edge="1" parent="1" source="MLiWWHoeJHPschGG-X9B-13" target="jQA3WTR6vjnxbKBaBSNO-9">
          <mxGeometry relative="1" as="geometry" />
        </mxCell>
        <mxCell id="MLiWWHoeJHPschGG-X9B-13" value="串口中断（UART3）" style="rounded=0;whiteSpace=wrap;html=1;" vertex="1" parent="1">
          <mxGeometry x="320" y="480" width="80" height="40" as="geometry" />
        </mxCell>
        <mxCell id="MLiWWHoeJHPschGG-X9B-21" style="edgeStyle=orthogonalEdgeStyle;rounded=0;orthogonalLoop=1;jettySize=auto;html=1;entryX=1;entryY=0.75;entryDx=0;entryDy=0;" edge="1" parent="1" source="MLiWWHoeJHPschGG-X9B-19" target="jQA3WTR6vjnxbKBaBSNO-17">
          <mxGeometry relative="1" as="geometry" />
        </mxCell>
        <mxCell id="MLiWWHoeJHPschGG-X9B-19" value="互斥量" style="ellipse;whiteSpace=wrap;html=1;aspect=fixed;" vertex="1" parent="1">
          <mxGeometry x="470" y="405" width="40" height="40" as="geometry" />
        </mxCell>
        <mxCell id="MLiWWHoeJHPschGG-X9B-25" value="" style="edgeStyle=orthogonalEdgeStyle;rounded=0;orthogonalLoop=1;jettySize=auto;html=1;" edge="1" parent="1" source="MLiWWHoeJHPschGG-X9B-22" target="MLiWWHoeJHPschGG-X9B-24">
          <mxGeometry relative="1" as="geometry" />
        </mxCell>
        <mxCell id="MLiWWHoeJHPschGG-X9B-22" value="串口中断（UART0）" style="rounded=0;whiteSpace=wrap;html=1;" vertex="1" parent="1">
          <mxGeometry x="320" width="80" height="40" as="geometry" />
        </mxCell>
        <mxCell id="MLiWWHoeJHPschGG-X9B-27" style="edgeStyle=orthogonalEdgeStyle;rounded=0;orthogonalLoop=1;jettySize=auto;html=1;entryX=0;entryY=0.75;entryDx=0;entryDy=0;" edge="1" parent="1" source="MLiWWHoeJHPschGG-X9B-28" target="jQA3WTR6vjnxbKBaBSNO-17">
          <mxGeometry relative="1" as="geometry" />
        </mxCell>
        <mxCell id="MLiWWHoeJHPschGG-X9B-30" value="" style="edgeStyle=orthogonalEdgeStyle;rounded=0;orthogonalLoop=1;jettySize=auto;html=1;" edge="1" parent="1" source="MLiWWHoeJHPschGG-X9B-24" target="MLiWWHoeJHPschGG-X9B-28">
          <mxGeometry relative="1" as="geometry" />
        </mxCell>
        <mxCell id="MLiWWHoeJHPschGG-X9B-24" value="SKP激光测距线程优先级（10）" style="whiteSpace=wrap;html=1;rounded=0;" vertex="1" parent="1">
          <mxGeometry x="320" y="60" width="80" height="40" as="geometry" />
        </mxCell>
        <mxCell id="MLiWWHoeJHPschGG-X9B-28" value="互斥量" style="ellipse;whiteSpace=wrap;html=1;aspect=fixed;" vertex="1" parent="1">
          <mxGeometry x="480" y="60" width="40" height="40" as="geometry" />
        </mxCell>
        <mxCell id="MLiWWHoeJHPschGG-X9B-33" style="edgeStyle=orthogonalEdgeStyle;rounded=0;orthogonalLoop=1;jettySize=auto;html=1;" edge="1" parent="1" source="MLiWWHoeJHPschGG-X9B-31">
          <mxGeometry relative="1" as="geometry">
            <mxPoint x="620" y="110" as="targetPoint" />
          </mxGeometry>
        </mxCell>
        <mxCell id="MLiWWHoeJHPschGG-X9B-31" value="rt定时器" style="whiteSpace=wrap;html=1;rounded=0;" vertex="1" parent="1">
          <mxGeometry x="660" y="80" width="55" height="60" as="geometry" />
        </mxCell>
        <mxCell id="MLiWWHoeJHPschGG-X9B-35" value="" style="edgeStyle=orthogonalEdgeStyle;rounded=0;orthogonalLoop=1;jettySize=auto;html=1;" edge="1" parent="1" source="MLiWWHoeJHPschGG-X9B-34" target="jQA3WTR6vjnxbKBaBSNO-17">
          <mxGeometry relative="1" as="geometry">
            <Array as="points">
              <mxPoint x="600" y="170" />
              <mxPoint x="600" y="170" />
            </Array>
          </mxGeometry>
        </mxCell>
        <mxCell id="MLiWWHoeJHPschGG-X9B-34" value="信号量" style="ellipse;whiteSpace=wrap;html=1;aspect=fixed;" vertex="1" parent="1">
          <mxGeometry x="580" y="90" width="40" height="40" as="geometry" />
        </mxCell>
        <mxCell id="MLiWWHoeJHPschGG-X9B-41" value="PWM电机驱动" style="whiteSpace=wrap;html=1;rounded=0;" vertex="1" parent="1">
          <mxGeometry x="760" y="230" width="70" height="60" as="geometry" />
        </mxCell>
      </root>
    </mxGraphModel>
  </diagram>
</mxfile>
